<?xml version="1.0" standalone="no"?>
<!DOCTYPE svg PUBLIC "-//W3C//DTD SVG 20010904//EN"
 "http://www.w3.org/TR/2001/REC-SVG-20010904/DTD/svg10.dtd">
<svg version="1.0" xmlns="http://www.w3.org/2000/svg"
 width="260.000000pt" height="260.000000pt" viewBox="0 0 260.000000 260.000000"
 preserveAspectRatio="xMidYMid meet">
<metadata>
Created by potrace 1.14, written by Peter Selinger 2001-2017
</metadata>
<g transform="translate(0.000000,260.000000) scale(0.100000,-0.100000)"
fill="#000000" stroke="none">
<path d="M1150 1420 l0 -790 43 -1 c46 -1 195 -1 267 0 l45 1 0 281 c0 165 4
283 9 286 5 4 163 6 351 6 l342 0 1 149 1 148 -352 0 -352 0 0 205 0 205 25 1
c14 0 193 1 399 2 l374 2 -1 120 c0 66 -1 132 -1 148 l-1 27 -575 0 -575 0 0
-790z"/>
<path d="M551 1974 c-77 -39 -110 -106 -97 -197 8 -52 50 -101 110 -128 48
-21 147 -19 192 4 112 58 136 211 46 295 -35 33 -68 44 -139 48 -50 2 -72 -2
-112 -22z"/>
<path d="M490 914 c0 -557 0 -564 20 -565 11 0 76 0 145 0 69 0 134 0 145 0
20 1 20 8 20 564 l0 563 -165 1 -165 1 0 -564z"/>
</g>
</svg>
