<svg version="1.0" xmlns="http://www.w3.org/2000/svg" width="346.667" height="346.667" viewBox="0 0 260 260"><path d="M115 118v79l4.3.1c4.6.1 19.5.1 26.7 0l4.5-.1v-28.1c0-16.5.4-28.3.9-28.6.5-.4 16.3-.6 35.1-.6h34.2l.1-14.9.1-14.8h-70.4V69l2.5-.1c1.4 0 19.3-.1 39.9-.2l37.4-.2-.1-12c0-6.6-.1-13.2-.1-14.8L230 39H115v79zM55.1 62.6c-7.7 3.9-11 10.6-9.7 19.7.8 5.2 5 10.1 11 12.8 4.8 2.1 14.7 1.9 19.2-.4 11.2-5.8 13.6-21.1 4.6-29.5-3.5-3.3-6.8-4.4-13.9-4.8-5-.2-7.2.2-11.2 2.2zm-6.1 106c0 55.7 0 56.4 2 56.5h29c2-.1 2-.8 2-56.4v-56.3l-16.5-.1-16.5-.1v56.4z"/></svg>